<svg id="Layer_1" data-name="Layer 1"
    xmlns="http://www.w3.org/2000/svg" width="44.8028mm" height="13.2292mm" viewBox="0 0 127 37.5">
    <defs>
        <style>.cls-1{fill:#003658;}</style>
    </defs>
    <title>aiv-header</title>
    <rect class="cls-1" x="41.1598" y="26.6873" width="25.6036" height="0.6304"/>
    <path class="cls-1" d="M70.3969,24.9815h.6248a1.3271,1.3271,0,0,1,.8369.2155.9537.9537,0,0,1,.1776,1.0664.6949.6949,0,0,1-.27.2674.8167.8167,0,0,1,.5441.8161.9327.9327,0,0,1-.2825.7517,1.3573,1.3573,0,0,1-.8887.24h-.7424Zm.3159.32v1.13h.1982a1.262,1.262,0,0,0,.6836-.1348.4984.4984,0,0,0,.1948-.4415.4779.4779,0,0,0-.189-.4207,1.0725,1.0725,0,0,0-.604-.1327Zm0,1.45V28.018h.4634a.9653.9653,0,0,0,.6029-.1545.6764.6764,0,0,0-.0035-.9534.952.952,0,0,0-.5994-.1579Z"/>
    <path class="cls-1" d="M75.02,26.4871h1.4109v.3319H75.02v1.1944h1.4109v.325h-1.743V24.9815h1.743v.33H75.02Z"/>
    <path class="cls-1" d="M79.92,27.105v1.2334h-.325V27.1l-1.0721-2.1189h.3781l.8576,1.743.8663-1.743h.3672Z"/>
    <path class="cls-1" d="M82.9266,26.6393a1.6987,1.6987,0,0,1,.1348-.6688,1.7519,1.7519,0,0,1,.3908-.5694,1.6945,1.6945,0,0,1,.543-.3643,1.6683,1.6683,0,0,1,.642-.1221,1.7306,1.7306,0,0,1,1.5886,1.0535,1.7335,1.7335,0,0,1,.1291.6711,1.8744,1.8744,0,0,1-.1107.6557,1.6643,1.6643,0,0,1-.3319.543,1.6727,1.6727,0,0,1-1.28.5672,1.6217,1.6217,0,0,1-1.215-.5084A1.74,1.74,0,0,1,82.9266,26.6393Zm.3459.0046a1.4261,1.4261,0,0,0,.3987,1.0282,1.3115,1.3115,0,0,0,.9846.415,1.2745,1.2745,0,0,0,.966-.42,1.4518,1.4518,0,0,0,.3943-1.033,1.36,1.36,0,0,0-.4058-.9856,1.32,1.32,0,0,0-.9777-.4138,1.28,1.28,0,0,0-.4483.08,1.3161,1.3161,0,0,0-.3977.2339,1.4429,1.4429,0,0,0-.3771.4958A1.3991,1.3991,0,0,0,83.2725,26.6439Z"/>
    <path class="cls-1" d="M90.9319,27.9372l-.0393-2.9557H91.22v3.3569h-.3966l-1.8421-2.96.0368,2.96h-.325V24.9815H89.09Z"/>
    <path class="cls-1" d="M93.7405,24.9815h.9545a2.3934,2.3934,0,0,1,.6628.0785,1.2839,1.2839,0,0,1,.4738.2511,1.6593,1.6593,0,0,1,.4473.5926,1.7928,1.7928,0,0,1,.159.7493,1.8518,1.8518,0,0,1-.1751.8105,1.5457,1.5457,0,0,1-.4957.596,1.4094,1.4094,0,0,1-.4588.2144,3.27,3.27,0,0,1-.7609.0645h-.8069Zm.3251.32v2.7206H94.75a1.3051,1.3051,0,0,0,.9867-.36,1.411,1.411,0,0,0,.3459-1.019,1.5531,1.5531,0,0,0-.1176-.6087,1.2491,1.2491,0,0,0-.3366-.4682.9868.9868,0,0,0-.3666-.204,2.169,2.169,0,0,0-.59-.0611Z"/>
    <path class="cls-1" d="M102.7168,28.3384h-.33V25.3111h-.6709v-.33h1.6714v.33h-.6709Z"/>
    <path class="cls-1" d="M105.8967,25.3111v3.0273h-.3251V24.9815h.9015a2.0447,2.0447,0,0,1,.4783.045.971.971,0,0,1,.3286.1487.9808.9808,0,0,1,.317.3757,1.1086,1.1086,0,0,1,.1164.4981,1.0221,1.0221,0,0,1-.2316.6709.8015.8015,0,0,1-.58.3066l.8116,1.3119h-.3918l-.9961-1.6185h.3181a.7269.7269,0,0,0,.5176-.1868.6279.6279,0,0,0,.1994-.48.8245.8245,0,0,0-.061-.3227.7116.7116,0,0,0-.1809-.2537.5762.5762,0,0,0-.2387-.128,2.1817,2.1817,0,0,0-.4969-.0381Z"/>
    <path class="cls-1" d="M110.0519,28.3384h-.3482l1.3025-3.3569h.3966l1.2981,3.3569h-.3527l-.4012-1.0537h-1.4941Zm1.78-1.3557-.6364-1.6854-.627,1.6854Z"/>
    <path class="cls-1" d="M114.3083,24.9815h.33l1.0629,2.8611,1.0675-2.8611h.33l-1.2635,3.3569h-.2605Z"/>
    <path class="cls-1" d="M119.5607,26.4871h1.4109v.3319h-1.4109v1.1944h1.4109v.325h-1.7429V24.9815h1.7429v.33h-1.4109Z"/>
    <path class="cls-1" d="M125,28.3384h-1.5125V24.9815h.3321v3.0319H125Z"/>
    <path class="cls-1" d="M48.8265,15.9946,50.23,19.68h1.0813L46.8258,8.08h-1.29l-4.5013,11.6H42.1l1.4032-3.6854ZM46.1481,8.9118l2.329,6.1682H43.853Z"/>
    <path class="cls-1" d="M52.7166,11.9473v7.745h-.8317V11.1036h2.3063a5.2587,5.2587,0,0,1,1.2241.1151,2.4722,2.4722,0,0,1,1.6516,1.342,2.834,2.834,0,0,1,.2979,1.2741,2.6137,2.6137,0,0,1-.5928,1.7165,2.05,2.05,0,0,1-1.4836.7845l2.0764,3.3565H56.362l-2.5483-4.141h.814a1.86,1.86,0,0,0,1.3243-.4777,1.6059,1.6059,0,0,0,.51-1.2269,2.1129,2.1129,0,0,0-.1563-.826,1.8164,1.8164,0,0,0-.4631-.6488,1.4677,1.4677,0,0,0-.6105-.3274,5.58,5.58,0,0,0-1.2712-.0972Z"/>
    <path class="cls-1" d="M60.556,19.6923h-.8435v-7.745H57.9959v-.8437h4.2766v.8437H60.556Z"/>
    <path class="cls-1" d="M67.3868,19.6923h-.8435V11.1036h.8435Z"/>
    <path class="cls-1" d="M74.69,18.6659l-.1-7.5623h.8376v8.5887H74.4122l-4.7131-7.574.0944,7.574h-.8317V11.1036h1.0145Z"/>
    <path class="cls-1" d="M79.4143,11.1036h.8436l2.7193,7.32,2.731-7.32h.8434l-3.2323,8.5887h-.6665Z"/>
    <path class="cls-1" d="M86.7347,15.345a4.3376,4.3376,0,0,1,.345-1.7107,4.4767,4.4767,0,0,1,1-1.457,4.3367,4.3367,0,0,1,1.3891-.932,4.2651,4.2651,0,0,1,1.6429-.3126,4.4287,4.4287,0,0,1,4.0642,2.6956,4.4363,4.4363,0,0,1,.33,1.7167,4.7929,4.7929,0,0,1-.2832,1.6781,4.2617,4.2617,0,0,1-.8493,1.3892A4.282,4.282,0,0,1,91.1,19.8634a4.1492,4.1492,0,0,1-3.1086-1.3007A4.4515,4.4515,0,0,1,86.7347,15.345Zm.8847.0117A3.6479,3.6479,0,0,0,88.64,17.9875a3.3542,3.3542,0,0,0,2.5187,1.0618A3.26,3.26,0,0,0,93.63,17.9758a3.7135,3.7135,0,0,0,1.0087-2.6427,3.4779,3.4779,0,0,0-1.0383-2.5218A3.3764,3.3764,0,0,0,91.1,11.7526a3.291,3.291,0,0,0-1.1473.2034,3.3647,3.3647,0,0,0-1.0175.5988,3.6856,3.6856,0,0,0-.9644,1.2682A3.5779,3.5779,0,0,0,87.6194,15.3567Z"/>
    <path class="cls-1" d="M99.1691,16.5365v3.1558h-.8316V16.5246l-2.743-5.421h.9674l2.1944,4.46,2.216-4.4595h.94Z"/>
    <path class="cls-1" d="M101.83,19.6923h-.8907l3.3328-8.5887h1.0146l3.321,8.5887h-.9025l-1.0264-2.6958h-3.8224Zm4.5538-3.4685-1.628-4.3119-1.6044,4.3119Z"/>
    <path class="cls-1" d="M112.2468,15.575h5.3384a4.48,4.48,0,0,1-1.3509,3.0821,4.2226,4.2226,0,0,1-3.0556,1.2063,4.151,4.151,0,0,1-3.1115-1.2978,4.4537,4.4537,0,0,1-1.2535-3.2206,4.3423,4.3423,0,0,1,.342-1.7107,4.483,4.483,0,0,1,1.0029-1.457,4.1953,4.1953,0,0,1,1.41-.938,4.6167,4.6167,0,0,1,1.7165-.3066,4.2335,4.2335,0,0,1,2.2445.6045,4.405,4.405,0,0,1,1.5956,1.7254h-1.0381a4.1913,4.1913,0,0,0-1.3008-1.1413,3.2452,3.2452,0,0,0-1.5484-.3687,3.3489,3.3489,0,0,0-2.504,1.0587,3.5316,3.5316,0,0,0-1.0234,2.5454,3.6432,3.6432,0,0,0,1.02,2.6368,3.3634,3.3634,0,0,0,2.5187,1.0558,3.2769,3.2769,0,0,0,2.1147-.755,3.4642,3.4642,0,0,0,1.2181-1.9585h-4.3355Z"/>
    <polygon class="cls-1" points="125 9.055 125 8.121 119.092 8.121 119.092 19.71 125 19.71 125 18.793 120.033 18.793 120.033 14.362 125 14.362 125 13.42 120.033 13.42 120.033 9.055 125 9.055"/>
    <path class="cls-1" d="M17.9991,26.3568V11.3578h2.6784v14.999Z"/>
    <path class="cls-1" d="M16.7136,26.3568h-3l-1.3713-2.6784L9.0641,17.25,5.7858,23.6784,4.4144,26.3568h-3L2.786,23.6784,9.0641,11.3578l6.2782,12.3206Z"/>
    <path class="cls-1" d="M37.262,11.3578l-1.3714,2.6784L29.6125,26.3568,23.3343,14.0362l-1.3714-2.6784h3l1.3713,2.6784,3.2784,6.4281,3.2783-6.4281,1.3713-2.6784Z"/>
    <path class="cls-1" d="M33.4869,27.9274a16.9411,16.9411,0,0,1-28.5964,0H3.5664a18.0729,18.0729,0,0,0,31.2446,0Z"/>
    <path class="cls-1" d="M4.729,10.02a16.9417,16.9417,0,0,1,28.9194,0h1.31a18.0727,18.0727,0,0,0-31.54,0Z"/>
</svg>